<svg xmlns="http://www.w3.org/2000/svg" version="1.1" xmlns:xlink="http://www.w3.org/1999/xlink" xmlns:svgjs="http://svgjs.dev/svgjs" width="1500" height="1500" viewBox="0 0 1500 1500"><rect width="1500" height="1500" fill="#8d021f"></rect><g transform="matrix(0.6666666666666666,0,0,0.6666666666666666,250,187.66666666666674)"><svg viewBox="0 0 320 360" data-background-color="#8d021f" preserveAspectRatio="xMidYMid meet" height="1687" width="1500" xmlns="http://www.w3.org/2000/svg" xmlns:xlink="http://www.w3.org/1999/xlink"><g id="tight-bounds" transform="matrix(1,0,0,1,0,0)"><svg viewBox="0 0 320 360" height="360" width="320"><g><svg></svg></g><g><svg viewBox="0 0 320 360" height="360" width="320"><g><path transform="translate(-25.80645,-5.80645) scale(10.32258,10.32258)" d="M18 33.5c8.55 0 15.5-6.95 15.5-15.5 0-8.55-6.95-15.5-15.5-15.5-8.55 0-15.5 6.95-15.5 15.5 0 8.55 6.95 15.5 15.5 15.5zM18.5 32.47v-1c7.04-0.26 12.71-5.93 12.97-12.97h1c-0.26 7.6-6.37 13.71-13.97 13.97zM18.5 3.53c7.6 0.26 13.71 6.37 13.97 13.97h-1c-0.26-7.04-5.93-12.71-12.97-12.97zM30.5 18c0 6.89-5.61 12.5-12.5 12.5-6.89 0-12.5-5.61-12.5-12.5 0-6.89 5.61-12.5 12.5-12.5 6.89 0 12.5 5.61 12.5 12.5zM17.5 3.53v1c-7.04 0.26-12.71 5.93-12.97 12.97h-1c0.26-7.6 6.37-13.71 13.97-13.97zM4.53 18.5c0.26 7.04 5.93 12.71 12.97 12.97v1c-7.6-0.26-13.71-6.37-13.97-13.97z" fill="#ffffff" fill-rule="nonzero" stroke="none" stroke-width="1" stroke-linecap="butt" stroke-linejoin="miter" stroke-miterlimit="10" stroke-dasharray="" stroke-dashoffset="0" font-family="none" font-weight="none" font-size="none" text-anchor="none" style="mix-blend-mode: normal" data-fill-palette-color="tertiary"></path></g><g transform="matrix(1,0,0,1,77.91189201292462,90)"><svg viewBox="0 0 164.17621597415075 180" height="180" width="164.17621597415075"><g><svg viewBox="0 0 192 210.50552173428952" height="180" width="164.17621597415075"><g transform="matrix(1,0,0,1,0,127.7385528531554)"><svg viewBox="0 0 192 82.76696888113412" height="82.76696888113412" width="192"><g id="textblocktransform"><svg viewBox="0 0 192 82.76696888113412" height="82.76696888113412" width="192" id="textblock"><g><svg viewBox="0 0 192 45.43511450381679" height="45.43511450381679" width="192"><g transform="matrix(1,0,0,1,0,0)"><svg width="192" viewBox="0 -32.05 137.54 32.55" height="45.43511450381679" data-palette-color="#ffffff"><path d="M21.7-31.05L28.15 0 17.65 0 16.65-4.8 11.1-4.8 10.05 0 0 0 6.45-31.05 21.7-31.05ZM11.85-11.25L15.9-11.25 14-21.65 13.8-21.65 11.85-11.25ZM40.05-13.4L40.05-13.4 40.05 0 29.75 0 29.75-23.95 38.65-23.95 38.95-22.35 39.15-22.35Q40.35-23.45 41.9-23.88 43.45-24.3 46.45-24.3L46.45-24.3 46.15-16 42.75-16Q41.25-16 40.65-15.45 40.05-14.9 40.05-13.4ZM57.3 0.5L57.3 0.5Q53.4 0.5 51.57-0.98 49.75-2.45 49.75-6.05L49.75-6.05 49.75-16.9 47.09-16.9 47.09-23.65 50.25-23.65 50.9-28.1 60.15-28.1 60.15-23.65 64.7-23.65 64.7-16.9 60.09-16.9 60.09-7.65Q60.09-7 60.7-7L60.7-7Q60.75-7 64.65-7.2L64.65-7.2 64.34 0Q59.34 0.5 57.3 0.5ZM83.64-24.55L83.64-24.55Q90.44-24.55 90.44-18.25L90.44-18.25 90.44 0 79.89 0 79.89-15.5Q79.89-16.3 79.07-16.3 78.24-16.3 77.24-15.8L77.24-15.8 77.24 0 66.84 0 66.84-32.05 76.89-32.05 76.89-22.45Q79.94-24.55 83.64-24.55ZM100.89 0.5L100.89 0.5Q93.79 0.5 93.79-6.3L93.79-6.3 93.79-23.95 104.29-23.95 104.29-8.25Q104.29-7.45 105.02-7.45 105.74-7.45 106.94-7.95L106.94-7.95 106.94-23.95 117.39-23.95 117.39-0.1 107.39-0.1 107.39-1.35 107.09-1.35Q104.19 0.5 100.89 0.5ZM131.14-13.4L131.14-13.4 131.14 0 120.84 0 120.84-23.95 129.74-23.95 130.04-22.35 130.24-22.35Q131.44-23.45 132.99-23.88 134.54-24.3 137.54-24.3L137.54-24.3 137.24-16 133.84-16Q132.34-16 131.74-15.45 131.14-14.9 131.14-13.4Z" opacity="1" transform="matrix(1,0,0,1,0,0)" fill="#ffffff" class="wordmark-text-0" data-fill-palette-color="primary" id="text-0"></path></svg></g></svg></g><g transform="matrix(1,0,0,1,0,56.16125459541985)"><svg viewBox="0 0 192 26.60571428571428" height="26.60571428571428" width="192"><g transform="matrix(1,0,0,1,0,0)"><svg width="192" viewBox="3 -37.65 349.96 48.5" height="26.60571428571428" data-palette-color="#ffffff"><path d="M9.35 0L3 0 3-34.55 19.7-34.55 19-29.8 9.35-29.8 9.35-19.25 17.75-19.25 17.75-14.5 9.35-14.5 9.35 0ZM34.65-27.1Q35.8-27.1 36.7-26.75L36.7-26.75 35.7-20.85Q34.7-21.1 33.85-21.1L33.85-21.1Q31.95-21.1 30.85-19.45 29.75-17.8 29.15-14.55L29.15-14.55 29.15 0 23 0 23-26.45 28.35-26.45 28.8-21.85Q30.65-27.1 34.65-27.1L34.65-27.1ZM58.4-13.85Q58.4-13.4 58.25-11.3L58.25-11.3 44.6-11.3Q44.8-7.2 46.02-5.58 47.25-3.95 49.5-3.95L49.5-3.95Q51.05-3.95 52.3-4.48 53.55-5 55-6.15L55-6.15 57.55-2.65Q54.05 0.75 49.15 0.75L49.15 0.75Q43.95 0.75 41.17-2.85 38.4-6.45 38.4-13L38.4-13Q38.4-19.55 41.05-23.35 43.7-27.15 48.55-27.15L48.55-27.15Q53.2-27.15 55.8-23.78 58.4-20.4 58.4-13.85L58.4-13.85ZM52.4-15.3L52.4-15.65Q52.4-19.4 51.5-21.13 50.6-22.85 48.6-22.85L48.6-22.85Q46.75-22.85 45.77-21.18 44.8-19.5 44.6-15.3L44.6-15.3 52.4-15.3ZM70.04-27.15Q74.74-27.15 77.99-24.05L77.99-24.05 75.64-20.7Q74.24-21.7 72.99-22.2 71.74-22.7 70.44-22.7L70.44-22.7Q68.99-22.7 68.17-21.93 67.34-21.15 67.34-19.8L67.34-19.8Q67.34-18.45 68.27-17.63 69.19-16.8 71.99-15.7L71.99-15.7Q75.44-14.35 77.09-12.5 78.74-10.65 78.74-7.55L78.74-7.55Q78.74-3.7 76.04-1.48 73.34 0.75 69.19 0.75L69.19 0.75Q66.49 0.75 64.22-0.23 61.94-1.2 60.24-2.95L60.24-2.95 63.24-6.25Q66.04-3.8 68.94-3.8L68.94-3.8Q70.59-3.8 71.54-4.67 72.49-5.55 72.49-7.1L72.49-7.1Q72.49-8.25 72.09-8.97 71.69-9.7 70.69-10.33 69.69-10.95 67.69-11.7L67.69-11.7Q64.24-13.05 62.77-14.85 61.29-16.65 61.29-19.45L61.29-19.45Q61.29-22.8 63.67-24.98 66.04-27.15 70.04-27.15L70.04-27.15ZM94.94-27.15Q97.79-27.15 99.44-25.1 101.09-23.05 101.09-19.6L101.09-19.6 101.09 0 94.94 0 94.94-18.9Q94.94-20.8 94.42-21.63 93.89-22.45 92.89-22.45L92.89-22.45Q90.79-22.45 88.74-18.5L88.74-18.5 88.74 0 82.59 0 82.59-37 88.74-37.65 88.74-23.3Q89.99-25.25 91.47-26.2 92.94-27.15 94.94-27.15L94.94-27.15ZM130.29-27.15Q132.94-27.15 134.54-25.1 136.14-23.05 136.14-19.6L136.14-19.6 136.14 0 130.09 0 130.09-18.95Q130.09-20.85 129.59-21.68 129.09-22.5 128.14-22.5L128.14-22.5Q126.19-22.5 124.39-18.8L124.39-18.8 124.39 0 118.39 0 118.39-18.95Q118.39-22.5 116.49-22.5L116.49-22.5Q114.44-22.5 112.69-18.8L112.69-18.8 112.69 0 106.64 0 106.64-26.45 111.99-26.45 112.39-23.05Q114.99-27.15 118.64-27.15L118.64-27.15Q120.49-27.15 121.84-26 123.19-24.85 123.89-22.75L123.89-22.75Q126.54-27.15 130.29-27.15L130.29-27.15ZM158.54-6.4Q158.54-5.1 158.89-4.48 159.24-3.85 160.04-3.45L160.04-3.45 158.79 0.65Q156.74 0.4 155.51-0.45 154.29-1.3 153.69-3.05L153.69-3.05Q151.39 0.75 147.24 0.75L147.24 0.75Q143.94 0.75 141.99-1.48 140.04-3.7 140.04-7.4L140.04-7.4Q140.04-11.7 142.71-13.95 145.39-16.2 150.49-16.2L150.49-16.2 152.54-16.2 152.54-18.05Q152.54-20.55 151.66-21.58 150.79-22.6 148.84-22.6L148.84-22.6Q146.49-22.6 142.99-21.3L142.99-21.3 141.59-25.3Q143.59-26.2 145.74-26.68 147.89-27.15 149.84-27.15L149.84-27.15Q158.54-27.15 158.54-18.35L158.54-18.35 158.54-6.4ZM148.89-3.7Q151.29-3.7 152.54-7L152.54-7 152.54-12.55 151.09-12.55Q148.54-12.55 147.36-11.4 146.19-10.25 146.19-7.85L146.19-7.85Q146.19-5.8 146.89-4.75 147.59-3.7 148.89-3.7L148.89-3.7ZM176.68-27.15Q179.53-27.15 181.18-25.1 182.83-23.05 182.83-19.6L182.83-19.6 182.83 0 176.68 0 176.68-18.9Q176.68-20.8 176.16-21.63 175.63-22.45 174.63-22.45L174.63-22.45Q172.53-22.45 170.48-18.5L170.48-18.5 170.48 0 164.33 0 164.33-26.45 169.68-26.45 170.13-23Q171.48-25.1 173.01-26.13 174.53-27.15 176.68-27.15L176.68-27.15ZM207.13-35.25Q210.13-35.25 212.43-34.2 214.73-33.15 216.68-31.05L216.68-31.05 213.73-27.65Q212.18-29.05 210.7-29.75 209.23-30.45 207.58-30.45L207.58-30.45Q205.68-30.45 204.58-29.28 203.48-28.1 203.48-26.2L203.48-26.2Q203.48-24.3 204.63-23.1 205.78-21.9 209.13-20.6L209.13-20.6Q213.43-18.85 215.45-16.5 217.48-14.15 217.48-9.85L217.48-9.85Q217.48-6.9 216.13-4.48 214.78-2.05 212.25-0.65 209.73 0.75 206.38 0.75L206.38 0.75Q202.93 0.75 200.38-0.48 197.83-1.7 195.73-3.95L195.73-3.95 198.93-7.45Q200.73-5.85 202.38-5 204.03-4.15 205.98-4.15L205.98-4.15Q208.28-4.15 209.55-5.58 210.83-7 210.83-9.45L210.83-9.45Q210.83-11.6 209.7-12.98 208.58-14.35 205.53-15.5L205.53-15.5Q200.93-17.35 198.9-19.75 196.88-22.15 196.88-25.75L196.88-25.75Q196.88-28.5 198.2-30.65 199.53-32.8 201.88-34.02 204.23-35.25 207.13-35.25L207.13-35.25ZM240.13-26.45L233.13 0.1Q231.83 4.9 228.93 7.65 226.03 10.4 221.18 10.85L221.18 10.85 220.48 6.5Q223.63 5.85 225.2 4.42 226.78 3 227.68 0L227.68 0 225.38 0 218.68-26.45 224.93-26.45 229.33-4.1 234.03-26.45 240.13-26.45ZM250.37-27.15Q255.07-27.15 258.32-24.05L258.32-24.05 255.97-20.7Q254.57-21.7 253.32-22.2 252.07-22.7 250.77-22.7L250.77-22.7Q249.32-22.7 248.5-21.93 247.67-21.15 247.67-19.8L247.67-19.8Q247.67-18.45 248.6-17.63 249.52-16.8 252.32-15.7L252.32-15.7Q255.77-14.35 257.42-12.5 259.07-10.65 259.07-7.55L259.07-7.55Q259.07-3.7 256.37-1.48 253.67 0.75 249.52 0.75L249.52 0.75Q246.82 0.75 244.55-0.23 242.27-1.2 240.57-2.95L240.57-2.95 243.57-6.25Q246.37-3.8 249.27-3.8L249.27-3.8Q250.92-3.8 251.87-4.67 252.82-5.55 252.82-7.1L252.82-7.1Q252.82-8.25 252.42-8.97 252.02-9.7 251.02-10.33 250.02-10.95 248.02-11.7L248.02-11.7Q244.57-13.05 243.1-14.85 241.62-16.65 241.62-19.45L241.62-19.45Q241.62-22.8 244-24.98 246.37-27.15 250.37-27.15L250.37-27.15ZM274.07-5L276.22-1.2Q273.77 0.75 270.47 0.75L270.47 0.75Q267.02 0.75 265.22-1.23 263.42-3.2 263.42-6.6L263.42-6.6 263.42-22 260.32-22 260.32-26.45 263.42-26.45 263.42-32.3 269.57-33.05 269.57-26.45 274.57-26.45 273.97-22 269.57-22 269.57-6.6Q269.57-4.2 271.62-4.2L271.62-4.2Q272.27-4.2 272.77-4.38 273.27-4.55 274.07-5L274.07-5ZM297.62-13.85Q297.62-13.4 297.47-11.3L297.47-11.3 283.82-11.3Q284.02-7.2 285.24-5.58 286.47-3.95 288.72-3.95L288.72-3.95Q290.27-3.95 291.52-4.48 292.77-5 294.22-6.15L294.22-6.15 296.77-2.65Q293.27 0.75 288.37 0.75L288.37 0.75Q283.17 0.75 280.39-2.85 277.62-6.45 277.62-13L277.62-13Q277.62-19.55 280.27-23.35 282.92-27.15 287.77-27.15L287.77-27.15Q292.42-27.15 295.02-23.78 297.62-20.4 297.62-13.85L297.62-13.85ZM291.62-15.3L291.62-15.65Q291.62-19.4 290.72-21.13 289.82-22.85 287.82-22.85L287.82-22.85Q285.97-22.85 284.99-21.18 284.02-19.5 283.82-15.3L283.82-15.3 291.62-15.3ZM325.57-27.15Q328.22-27.15 329.82-25.1 331.42-23.05 331.42-19.6L331.42-19.6 331.42 0 325.37 0 325.37-18.95Q325.37-20.85 324.87-21.68 324.37-22.5 323.42-22.5L323.42-22.5Q321.47-22.5 319.67-18.8L319.67-18.8 319.67 0 313.67 0 313.67-18.95Q313.67-22.5 311.77-22.5L311.77-22.5Q309.72-22.5 307.97-18.8L307.97-18.8 307.97 0 301.92 0 301.92-26.45 307.27-26.45 307.67-23.05Q310.27-27.15 313.92-27.15L313.92-27.15Q315.77-27.15 317.12-26 318.47-24.85 319.17-22.75L319.17-22.75Q321.82-27.15 325.57-27.15L325.57-27.15ZM344.26-27.15Q348.96-27.15 352.21-24.05L352.21-24.05 349.86-20.7Q348.46-21.7 347.21-22.2 345.96-22.7 344.66-22.7L344.66-22.7Q343.21-22.7 342.39-21.93 341.56-21.15 341.56-19.8L341.56-19.8Q341.56-18.45 342.49-17.63 343.41-16.8 346.21-15.7L346.21-15.7Q349.66-14.35 351.31-12.5 352.96-10.65 352.96-7.55L352.96-7.55Q352.96-3.7 350.26-1.48 347.56 0.75 343.41 0.75L343.41 0.75Q340.71 0.75 338.44-0.23 336.16-1.2 334.46-2.95L334.46-2.95 337.46-6.25Q340.26-3.8 343.16-3.8L343.16-3.8Q344.81-3.8 345.76-4.67 346.71-5.55 346.71-7.1L346.71-7.1Q346.71-8.25 346.31-8.97 345.91-9.7 344.91-10.33 343.91-10.95 341.91-11.7L341.91-11.7Q338.46-13.05 336.99-14.85 335.51-16.65 335.51-19.45L335.51-19.45Q335.51-22.8 337.89-24.98 340.26-27.15 344.26-27.15L344.26-27.15Z" opacity="1" transform="matrix(1,0,0,1,0,0)" fill="#ffffff" class="slogan-text-1" data-fill-palette-color="secondary" id="text-1"></path></svg></g></svg></g></svg></g></svg></g><g transform="matrix(1,0,0,1,42.85686366502536,0)"><svg viewBox="0 0 106.28627266994928 106.28627266994928" height="106.28627266994928" width="106.28627266994928"><g><svg></svg></g><g id="icon-0"><svg viewBox="0 0 106.28627266994928 106.28627266994928" height="106.28627266994928" width="106.28627266994928"><g><path d="M0 53.143c0-29.35 23.793-53.143 53.143-53.143 29.35 0 53.143 23.793 53.143 53.143 0 29.35-23.793 53.143-53.143 53.143-29.35 0-53.143-23.793-53.143-53.143zM53.143 102.189c27.087 0 49.046-21.959 49.046-49.046 0-27.087-21.959-49.046-49.046-49.046-27.087 0-49.046 21.959-49.046 49.046 0 27.087 21.959 49.046 49.046 49.046z" data-fill-palette-color="accent" fill="#ffffff" stroke="transparent"></path><ellipse rx="52.611704971624896" ry="52.611704971624896" cx="53.14313633497464" cy="53.14313633497464" fill="#ffffff" stroke="transparent" stroke-width="0" fill-opacity="1" data-fill-palette-color="accent"></ellipse></g><g transform="matrix(1,0,0,1,26.123486962271965,37.44472004943439)"><svg viewBox="0 0 54.039298745405354 31.39683257108051" height="31.39683257108051" width="54.039298745405354"><g><svg version="1.1" xmlns="http://www.w3.org/2000/svg" xmlns:xlink="http://www.w3.org/1999/xlink" x="0" y="0" viewBox="0 0 100 58.1" enable-background="new 0 0 100 58.1" xml:space="preserve" width="54.039298745405354" height="31.39683257108051" class="icon-cg-0" data-fill-palette-color="quaternary" id="cg-0"><path d="M69.987 1.618C69.919 0.714 69.172 0 68.25 0H1.75C0.828 0 0.081 0.714 0.013 1.618L0 46.55c0 0.967 0.783 1.75 1.75 1.75h66.5c0.967 0 1.75-0.783 1.75-1.75L69.987 1.618zM3 3.1h64v36.8H3V3.1z" fill="#8d021f" data-fill-palette-color="quaternary"></path><path d="M46.2 56.7c-2.8-0.7-3.5-2.801-3.5-5.601H27.3c0 2.8-0.7 4.9-3.5 5.601-0.679 0.169-0.7 1.399 0 1.399H35h11.2C46.9 58.1 46.879 56.869 46.2 56.7z" fill="#8d021f" data-fill-palette-color="quaternary"></path><path d="M97 0.1h-3H83h-3c-1.517 0-3 1.718-3 3v2 1 46 1 2c0 1.282 1.483 3 3 3h3 11 3c1.517 0 3-1.718 3-3v-2-1-46-1-2C100 1.817 98.517 0.1 97 0.1zM98.001 55.083C97.961 55.394 97.365 56.1 97 56.1h-3H83h-3c-0.365 0-0.961-0.706-1.001-1.017L79 53.1h19L98.001 55.083zM79 5.1l-0.001-1.983C79.039 2.806 79.635 2.1 80 2.1h3 11 3c0.365 0 0.961 0.706 1.001 1.017L98 5.1H79z" fill="#8d021f" data-fill-palette-color="quaternary"></path></svg></g></svg></g></svg></g></svg></g><g></g></svg></g></svg></g></svg></g><defs></defs></svg><rect width="320" height="360" fill="none" stroke="none" visibility="hidden"></rect></g></svg></g></svg>